<?xml version="1.0" encoding="utf-8"?>
<!-- Generator: Adobe Illustrator 25.0.1, SVG Export Plug-In . SVG Version: 6.00 Build 0)  -->
<svg version="1.1" id="Ebene_1" xmlns="http://www.w3.org/2000/svg" xmlns:xlink="http://www.w3.org/1999/xlink" x="0px" y="0px"
	 viewBox="0 0 512 512" style="enable-background:new 0 0 512 512;" xml:space="preserve">
<style type="text/css">
	.st0{fill:#FEDA9B;}
	.st1{fill:#1D1D1B;}
	.st2{font-family:'Impact';}
	.st3{font-size:34.6306px;}
	.st4{fill:none;}
	.st5{font-size:15px;}
	.st6{font-size:16px;}
	.st7{font-family:'MyriadPro-Regular';}
	.st8{font-size:17px;}
</style>
<path class="st0" d="M437.1,393.6h2V167.3l-36.7-26.7l32-20l-22-16.7V82.6h26.7v-20c0-27.1-21.9-49-49-49h-341l0,0c-0.3,0-0.7,0-1,0
	c-26,0-47,27.5-47,61.4c0,27.9,17.4,50.6,38.8,50.6h65.3v168.5l30.6,19.8l-30.6,27.3V431c0,48.8,25.5,74.5,57.1,74.5
	c2.3,0,4.6-0.2,6.8-0.6v0.6h268c30.9,0,56-25.1,56-56S468,393.6,437.1,393.6z"/>
<path d="M458,381.1V163.7c0-3.2-1.5-6.2-4.1-8.1l-24.7-17.9l19.4-12.1c2.8-1.7,4.5-4.7,4.7-8c0.1-3.3-1.3-6.4-4-8.4l-18-13.7V89H448
	c5.5,0,10-4.5,10-10V59c0-32.5-26.5-59-59-59H58c-0.1,0-0.2,0-0.3,0c-0.2,0-0.5,0-0.7,0C41.3,0,26.6,7.8,15.8,21.9
	C5.6,35.2,0,52.8,0,71.4C0,104.8,21.9,132,48.8,132h55.3v158.5c0,3.4,1.7,6.5,4.6,8.4l19.6,12.7l-20.8,18.6
	c-2.1,1.9-3.3,4.6-3.3,7.5v86.7c0,0.5,0.1,1.1,0.1,1.6c-0.1,0.5-0.1,1-0.1,1.6c0,25.4,6.6,46.9,19,61.9c12,14.6,29.1,22.6,48.1,22.6
	H446c36.4,0,66-29.6,66-66C512,413.7,488.7,386.8,458,381.1z M82.1,112c2.9-5.6,4.6-12,4.6-18.8C86.7,70.1,71.8,54,50.4,54
	c-5.5,0-10,4.5-10,10s4.5,10,10,10c10.2,0,16.3,7.2,16.3,19.2c0,12.2-9.2,18.8-17.9,18.8C33.2,112,20,93.4,20,71.4
	C20,43.1,36.6,20,57,20c14.1,0,25.2,4.4,32.8,13.1c9.4,10.7,14.2,28,14.2,51.4V112H82.1z M138.5,476.7
	c-9.4-11.4-14.4-28.5-14.4-49.2c0-0.5-0.1-1.1-0.1-1.6c0.1-0.5,0.1-1,0.1-1.6v-82.2l27.2-24.4c2.3-2.1,3.6-5.1,3.3-8.2
	c-0.2-3.1-1.9-5.9-4.5-7.6l-26-16.9V84.5c0-28.4-6.4-50.1-19.1-64.5h294c21.5,0,39,17.5,39,39v10h-16.7c-5.5,0-10,4.5-10,10v21.3
	c0,3.1,1.5,6.1,4,8l10.4,7.9L406,128.5c-2.8,1.8-4.6,4.8-4.7,8.1s1.4,6.5,4.1,8.4l32.5,23.7V380H183.8c-0.5,0-1,0-1.5,0.1
	c-1-0.1-1.9-0.1-2.9-0.1c-21.3,0-37.9,17.1-37.9,38.8c0,23.1,14.9,39.2,36.3,39.2c5.5,0,10-4.5,10-10s-4.5-10-10-10
	c-10.2,0-16.3-7.2-16.3-19.2c0-12.2,9.2-18.8,17.9-18.8c15.6,0,28.8,18.6,28.8,40.6c0,28.3-16.6,51.4-37,51.4
	C158,492,146.8,486.7,138.5,476.7z M446,492H210.8c0.5-0.6,1-1.2,1.5-1.9c9.6-12.5,15.1-28.8,15.8-46.1H384c5.5,0,10-4.5,10-10
	s-4.5-10-10-10H226.3c-2.1-9-5.8-17.2-10.7-24H446c25.4,0,46,20.6,46,46S471.4,492,446,492z"/>
<path d="M232.4-21c2.6,0,5.2-1.1,7.1-2.9c1.9-1.9,2.9-4.4,2.9-7.1s-1.1-5.2-2.9-7.1c-1.9-1.9-4.4-2.9-7.1-2.9
	c-2.6,0-5.2,1.1-7.1,2.9s-2.9,4.4-2.9,7.1s1.1,5.2,2.9,7.1S229.7-21,232.4-21z"/>
<path d="M222-127h144.4c5.5,0,10-4.5,10-10s-4.5-10-10-10H222c-5.5,0-10,4.5-10,10S216.5-127,222-127z"/>
<path d="M-84.6-123h187c5.5,0,10-4.5,10-10s-4.5-10-10-10h-187c-5.5,0-10,4.5-10,10S-90.2-123-84.6-123z"/>
<path d="M148.4-176h187c5.5,0,10-4.5,10-10s-4.5-10-10-10h-187c-5.5,0-10,4.5-10,10S142.8-176,148.4-176z"/>
<path d="M480.4-76h187c5.5,0,10-4.5,10-10s-4.5-10-10-10h-187c-5.5,0-10,4.5-10,10S474.8-76,480.4-76z"/>
<path d="M292.4-29h187c5.5,0,10-4.5,10-10s-4.5-10-10-10h-187c-5.5,0-10,4.5-10,10S286.8-29,292.4-29z"/>
<g>
	<path d="M422.9,424c-2.6,0-5.2,1.1-7.1,2.9s-2.9,4.4-2.9,7.1s1.1,5.2,2.9,7.1c1.9,1.9,4.4,2.9,7.1,2.9c2.6,0,5.2-1.1,7.1-2.9
		c1.9-1.9,2.9-4.4,2.9-7.1s-1.1-5.2-2.9-7.1C428.1,425.1,425.5,424,422.9,424z"/>
	<text transform="matrix(1 0 0 1 139.7314 70.2985)" class="st1 st2 st3">Here are the rules</text>
	
		<rect x="158.2" y="106.7" transform="matrix(1 -2.497135e-03 2.497135e-03 1 -0.4425 0.6947)" class="st4" width="239.5" height="141.8"/>
	<text transform="matrix(1 0 0 1 158.0871 118.2263)"><tspan x="0" y="0" class="st1 st2 st5">It‘s a textbased maze and you have to </tspan><tspan x="0" y="18" class="st1 st2 st5">get to the other red field. As you can </tspan><tspan x="0.1" y="36" class="st1 st2 st5">see, you cant see the maze, so you have </tspan><tspan x="0.1" y="54" class="st1 st2 st5">to find out yourself through trying. You </tspan><tspan x="0.2" y="72" class="st1 st2 st5">start on the bottom red field. The Story </tspan><tspan x="0.2" y="90" class="st1 st2 st5">will help you to make the right decisi</tspan><tspan x="224.9" y="90" class="st1 st2 st5">-</tspan><tspan x="0.3" y="108" class="st1 st2 st5">ons.  Write start in the chat to begin.</tspan></text>
	
		<rect x="161.4" y="266.1" transform="matrix(1 -8.522947e-03 8.522947e-03 1 -2.6934 2.5376)" class="st4" width="270" height="102.3"/>
	<text transform="matrix(1 -8.522937e-03 8.522937e-03 1 161.0396 279.9464)"><tspan x="0" y="0" class="st1 st2 st6">Forward ( </tspan><tspan x="63.7" y="0" class="st1 st7 st6">f </tspan><tspan x="71.8" y="0" class="st1 st2 st6">)</tspan><tspan x="0" y="38.4" class="st1 st2 st6">Turn right and forward ( </tspan><tspan x="156.7" y="38.4" class="st1 st7 st6">trf </tspan><tspan x="175.3" y="38.4" class="st1 st2 st6">)</tspan><tspan x="0" y="76.6" class="st1 st2 st8">Turn left and forward ( </tspan><tspan x="156.3" y="76.6" class="st1 st7 st8">tlf </tspan><tspan x="174.5" y="76.6" class="st1 st2 st8">)</tspan></text>
	
		<image style="overflow:visible;" width="319" height="337" xlink:href="../../../../../../../../../../../Downloads/finger.png"  transform="matrix(0.1087 -3.119691e-03 3.119691e-03 0.1087 372.6377 256.9562)">
	</image>
	
		<image style="overflow:visible;" width="319" height="337" xlink:href="../../../../../../../../../../../Downloads/finger.png"  transform="matrix(-5.105290e-03 0.1086 0.1086 5.105290e-03 372.7451 333.1774)">
	</image>
	
		<image style="overflow:visible;" width="319" height="337" xlink:href="../../../../../../../../../../../Downloads/finger.png"  transform="matrix(-7.317272e-03 0.1085 -0.1085 -7.317272e-03 389.3021 294.5789)">
	</image>
</g>
</svg>
